<?xml version="1.0" encoding="UTF-8"?>
<svg width="24" height="24" viewBox="0 0 24 24" fill="none" xmlns="http://www.w3.org/2000/svg">
  <path d="M12 2C6.47715 2 2 6.47715 2 12C2 17.5228 6.47715 22 12 22C17.5228 22 22 17.5228 22 12C22 6.47715 17.5228 2 12 2ZM16.5917 16.8517C16.3733 17.2017 15.9383 17.2933 15.5883 17.075C13.36 15.7083 10.4717 15.4083 6.91667 16.2667C6.51667 16.3667 6.11667 16.1183 6.01667 15.7183C5.91667 15.3183 6.16667 14.9183 6.56667 14.8183C10.4717 13.8683 13.7183 14.2267 16.2683 15.7767C16.6183 15.995 16.71 16.43 16.4917 16.78V16.8517ZM17.9183 14.0517C17.6433 14.485 17.0933 14.6017 16.66 14.3267C14.0933 12.7517 10.0683 12.3017 6.83333 13.3433C6.33333 13.4933 5.81667 13.2183 5.66667 12.7267C5.51667 12.2267 5.79167 11.71 6.28333 11.56C10.0683 10.3767 14.5933 10.885 17.6433 12.7933C18.0767 13.0683 18.1933 13.6183 17.9183 14.0517ZM17.9683 11.1433C14.885 9.32666 9.51667 9.11832 6.51667 10.0767C5.91667 10.2683 5.3 9.93499 5.10833 9.33499C4.91667 8.73499 5.25 8.11832 5.85 7.92666C9.35 6.83499 15.31 7.08499 18.9183 9.21832C19.4433 9.53499 19.61 10.21 19.2933 10.7267C18.9767 11.2517 18.3017 11.4183 17.785 11.1017L17.9683 11.1433Z" fill="url(#spotify-gradient)"/>
  <defs>
    <linearGradient id="spotify-gradient" x1="2" y1="2" x2="22" y2="22" gradientUnits="userSpaceOnUse">
      <stop offset="0%" stop-color="#E85281"/>
      <stop offset="100%" stop-color="#EBBC4B"/>
    </linearGradient>
  </defs>
</svg> 